<svg xmlns="http://www.w3.org/2000/svg" viewBox="0 0 512 512">
  <rect width="512" height="512" rx="96" fill="#2D7D46"/>
  <g fill="white">
    <path d="M160 180c0-22 18-40 40-40h112c22 0 40 18 40 40v20h-192v-20z"/>
    <path d="M140 220h232c11 0 20 9 20 20v132c0 22-18 40-40 40H160c-22 0-40-18-40-40V240c0-11 9-20 20-20z"/>
    <circle cx="200" cy="300" r="24" fill="#2D7D46"/>
    <circle cx="312" cy="300" r="24" fill="#2D7D46"/>
    <path d="M232 340h48c4 0 8 4 8 8v24c0 4-4 8-8 8h-48c-4 0-8-4-8-8v-24c0-4 4-8 8-8z" fill="#2D7D46"/>
  </g>
  <path d="M256 120l40-40M256 120l-40-40" stroke="white" stroke-width="16" stroke-linecap="round"/>
</svg>
